<?xml version="1.0" encoding="utf-8"?>
<!-- Generator: Adobe Illustrator 24.0.0, SVG Export Plug-In . SVG Version: 6.00 Build 0)  -->
<svg version="1.1" id="Layer_1" xmlns="http://www.w3.org/2000/svg" xmlns:xlink="http://www.w3.org/1999/xlink" x="0px" y="0px"
	 viewBox="0 0 595.3 841.9" style="enable-background:new 0 0 595.3 841.9;" xml:space="preserve">
<style type="text/css">
	.st0{fill:#030304;}
	.st1{font-family:'BrandonGrotesque-Medium';}
	.st2{font-size:12.6123px;}
	.st3{fill:#368197;}
	.st4{font-family:'BrandonGrotesque-Bold';}
	.st5{font-size:10.9672px;}
	.st6{fill:#C8C9CA;}
	.st7{fill:#D6D7D7;}
	.st8{fill:#FFFFFF;}
	.st9{font-size:36.0351px;}
</style>
<text transform="matrix(1 0 0 1 234.6198 479.21)"><tspan x="0" y="0" class="st0 st1 st2">Dr</tspan><tspan x="13.6" y="0" class="st0 st1 st2">a</tspan><tspan x="18.9" y="0" class="st0 st1 st2">per</tspan></text>
<text transform="matrix(1 0 0 1 310.1573 479.21)" class="st0 st1 st2">Crowdcube</text>
<text transform="matrix(1 0 0 1 237.3693 494.3438)"><tspan x="0" y="0" class="st0 st1 st2">Es</tspan><tspan x="11.9" y="0" class="st0 st1 st2">p</tspan><tspan x="18.1" y="0" class="st0 st1 st2">r</tspan><tspan x="22.3" y="0" class="st0 st1 st2">i</tspan><tspan x="25.2" y="0" class="st0 st1 st2">t</tspan></text>
<text transform="matrix(1 0 0 1 120.838 515.0537)" class="st0 st1 st2">BGF</text>
<text transform="matrix(1 0 0 1 60.4915 342.8951)"><tspan x="0" y="0" class="st3 st4 st5">TOP EQUITY INVESTORS BY DEALS INTO VISIBLE SCALEUPS   </tspan><tspan x="307" y="0" class="st6 st4 st5">01/11/2011 – 31/08/2019</tspan></text>
<text transform="matrix(1 0 0 1 402.3644 478.5723)"><tspan x="0" y="0" class="st0 st1 st2">Index  </tspan><tspan x="-7.6" y="15.1" class="st0 st1 st2">Ventures</tspan></text>
<g>
	<text transform="matrix(1 0 0 1 477.3878 478.1064)" class="st0 st1 st2">L</text>
	<text transform="matrix(1 0 0 1 483.7198 478.1064)" class="st0 st1 st2">l</text>
	<text transform="matrix(1 0 0 1 487.1241 478.1064)" class="st0 st1 st2">o</text>
	<text transform="matrix(1 0 0 1 494.048 478.1064)" class="st0 st1 st2">y</text>
	<text transform="matrix(1 0 0 1 500.2784 478.1064)" class="st0 st1 st2">d</text>
	<text transform="matrix(1 0 0 1 507.3917 478.1064)"><tspan x="0" y="0" class="st0 st1 st2">s</tspan><tspan x="4.5" y="0" class="st0 st1 st2"> </tspan></text>
</g>
<text transform="matrix(1 0 0 1 462.4493 493.2412)" class="st0 st1 st2">Development</text>
<g>
	<text transform="matrix(1 0 0 1 477.5402 508.376)" class="st0 st1 st2">Cap</text>
	<text transform="matrix(1 0 0 1 498.5128 508.376)"><tspan x="0" y="0" class="st0 st1 st2">i</tspan><tspan x="2.8" y="0" class="st0 st1 st2">t</tspan></text>
	<text transform="matrix(1 0 0 1 506.3448 508.376)" class="st0 st1 st2">al</text>
</g>
<path class="st7" d="M527.9,426.2c0,17.1-13.9,31-31,31c-17.1,0-31-13.9-31-31c0-17.1,13.9-31,31-31
	C514.1,395.3,527.9,409.1,527.9,426.2"/>
<path class="st7" d="M451.7,426.2c0,18.8-15.3,34.1-34.1,34.1c-18.8,0-34.1-15.3-34.1-34.1c0-18.8,15.3-34.1,34.1-34.1
	C436.5,392.2,451.7,407.4,451.7,426.2"/>
<path class="st7" d="M288.4,425.8c0,19.6-15.9,35.4-35.4,35.4c-19.6,0-35.4-15.9-35.4-35.4s15.9-35.4,35.4-35.4
	C272.6,390.3,288.4,406.2,288.4,425.8"/>
<path class="st3" d="M202.3,425.8c0,38.7-31.4,70.1-70.1,70.1c-38.7,0-70.1-31.4-70.1-70.1s31.4-70.1,70.1-70.1
	C171,355.7,202.3,387.1,202.3,425.8"/>
<text transform="matrix(1 0 0 1 480.1017 439.2227)" class="st8 st1 st9">16</text>
<text transform="matrix(1 0 0 1 402.6876 439.2227)" class="st8 st1 st9">17</text>
<text transform="matrix(1 0 0 1 232.1212 439.2227)" class="st8 st1 st9">24</text>
<text transform="matrix(1 0 0 1 113.027 440.373)" class="st8 st1 st9">85</text>
<path class="st7" d="M372,425.8c0,18.8-15.3,34.1-34.1,34.1c-18.8,0-34.1-15.3-34.1-34.1c0-18.8,15.3-34.1,34.1-34.1
	C356.7,391.7,372,407,372,425.8"/>
<text transform="matrix(1 0 0 1 323.5988 439.4346)" class="st8 st1 st9">17</text>
</svg>
