<svg xmlns="http://www.w3.org/2000/svg" width="45.967" height="44.048" viewBox="0 0 45.967 44.048">
  <path id="Path_1441" data-name="Path 1441" d="M77.437,81.41H56.8a.564.564,0,0,0-.563.563v26.922a.563.563,0,0,0,.563.562H73.359a.556.556,0,0,0,.367-.138l4.079-3.528a.57.57,0,0,0,.194-.425V81.973A.562.562,0,0,0,77.437,81.41Zm-10.944,17.5a5.049,5.049,0,0,1-3.575,1.427,5.3,5.3,0,1,1,0-10.591,4.979,4.979,0,0,1,3.56,1.368.274.274,0,0,1,.015.412l-.9.927a.237.237,0,0,1-.368,0,3.483,3.483,0,0,0-2.265-.868,3.415,3.415,0,0,0,.014,6.825,3.531,3.531,0,0,0,2.251-.838.271.271,0,0,1,.368,0l.912.941A.28.28,0,0,1,66.493,98.913Zm10.34-8.634-4.56,9.9a.264.264,0,0,1-.25.162h-.147a.264.264,0,0,1-.25-.162l-4.545-9.9a.26.26,0,0,1,.25-.383h1.5a.27.27,0,0,1,.25.162L71.9,96.383h.1l2.825-6.325a.269.269,0,0,1,.25-.162h1.5A.26.26,0,0,1,76.833,90.279Zm23.8,15.34c-.365.373-.708.724-13.263.895-2.226.031-4.069.045-5.6.045-.773,0-1.453,0-2.074-.011a2.541,2.541,0,0,0,.3-1.182v-1.085c6.41.052,17.1-.153,19.184-.451,1.169-1.771,1.173-8.413-.971-12.747-1.113-2.249-2.538-3.322-4.2-3.195a18.523,18.523,0,0,1-13.821.246H80.16c-.055,0-.107.011-.161.014V85.9c.166,0,.328-.024.5-.015a1.109,1.109,0,0,1,.38.088,16.211,16.211,0,0,0,12.36-.213,1.081,1.081,0,0,1,.342-.1c2.707-.333,5.083,1.239,6.658,4.419C102.681,95.023,102.892,103.3,100.631,105.619ZM97.357,74.381a10.242,10.242,0,0,0-18.174-5.108,10,10,0,0,0-2.122,7.412,10.243,10.243,0,0,0,18.174,5.108A9.992,9.992,0,0,0,97.357,74.381ZM87.214,83.467a8,8,0,1,1,8-8A8,8,0,0,1,87.214,83.467Z" transform="translate(-56.239 -65.409)" fill="#fd9a2c"/>
</svg>
