<svg xmlns="http://www.w3.org/2000/svg" width="54.382" height="44.773" viewBox="0 0 54.382 44.773">
  <path id="Path_1454" data-name="Path 1454" d="M95.681,458.963c-1.315,0-2.641-.051-3.937-.15a19.56,19.56,0,0,1-1.606,3.235,50.459,50.459,0,0,0,5.543.3c8.331,0,15.117-1.911,15.552-4.314h.041v-2.779C109.275,457.693,102.333,458.963,95.681,458.963ZM73.635,435.28a16.743,16.743,0,1,0,16.744,16.744A16.762,16.762,0,0,0,73.635,435.28Zm0,30.483a13.739,13.739,0,1,1,13.738-13.739A13.755,13.755,0,0,1,73.635,465.764Zm22.047-12.176c-.9,0-1.815-.027-2.718-.072A19.272,19.272,0,0,1,92.337,457c1.078.07,2.195.109,3.344.109,8.331,0,15.117-1.91,15.552-4.314h.041v-2.921C109.275,452.316,102.333,453.587,95.681,453.587Zm15.554-25.266c-.408-2.409-7.2-4.328-15.554-4.328s-15.146,1.919-15.553,4.328h-.039v3.535h.042c.435,2.4,7.22,4.314,15.551,4.314s15.117-1.912,15.552-4.314h.041v-3.535ZM95.681,448.484c-.988,0-1.981-.031-2.965-.087a19.465,19.465,0,0,1,.327,3.411c.859.043,1.737.071,2.638.071,8.331,0,15.117-1.912,15.552-4.315h.041v-2.788C109.275,447.214,102.333,448.484,95.681,448.484Zm0-10.778a44.665,44.665,0,0,1-10.059-1.065,19.5,19.5,0,0,1,4.123,4.423,50.033,50.033,0,0,0,5.936.342c8.331,0,15.117-1.91,15.552-4.313h.041V434C109.275,436.437,102.333,437.707,95.681,437.707Zm0,5.549c-1.6,0-3.224-.074-4.788-.221a19.313,19.313,0,0,1,1.386,3.494c1.1.073,2.232.114,3.4.114,8.331,0,15.117-1.91,15.552-4.314h.041v-2.779C109.275,441.986,102.333,443.256,95.681,443.256ZM74.5,441.933a5.383,5.383,0,0,0-5.647,5.619,17.309,17.309,0,0,0,.834,4.329h-.861a.506.506,0,0,0-.484.512v.268a.507.507,0,0,0,.484.512h1.182a10.084,10.084,0,0,1-1.021,6.856v.484a.529.529,0,0,0,.511.511h8.713a.507.507,0,0,0,.484-.511V459.2a.489.489,0,0,0-.484-.511h-6a12.131,12.131,0,0,0,.483-5.512h3.5a.49.49,0,0,0,.511-.484v-.3a.511.511,0,0,0-.511-.512H72.426a19.92,19.92,0,0,1-.968-4.384,2.975,2.975,0,0,1,3.012-3.145,5.14,5.14,0,0,1,2.931,1.4.454.454,0,0,0,.753-.053l.941-1.155a.479.479,0,0,0-.053-.7A6.827,6.827,0,0,0,74.5,441.933Z" transform="translate(-56.892 -423.994)" fill="#909090"/>
</svg>
