<svg xmlns="http://www.w3.org/2000/svg" width="39.117" height="41.029" viewBox="0 0 39.117 41.029">
  <g id="Group_624" data-name="Group 624" transform="translate(-416.005 -310.839)">
    <path id="Path_1448" data-name="Path 1448" d="M430.375,332.31" fill="#909090" stroke="#246f86" stroke-linecap="round" stroke-linejoin="round" stroke-width="0.8"/>
    <path id="Path_1449" data-name="Path 1449" d="M440.139,336.8c.239.431.132,1.022-.314,1.755a1.072,1.072,0,0,1-.148.188,6.3,6.3,0,0,0-1.126,1.622,1.074,1.074,0,0,1-.4.457,2.941,2.941,0,0,0-1.335,1.525,1.071,1.071,0,0,1-.353.6,4.721,4.721,0,0,0-1.26,1.716,12.181,12.181,0,0,1-2.276-.341,6.015,6.015,0,0,1-.639-2.44.556.556,0,0,0-.237-.494,1.96,1.96,0,0,1-.963-1.241.662.662,0,0,0-.041-.177,10.042,10.042,0,0,0-.8-1.628.3.3,0,0,1-.171-.182,4.2,4.2,0,0,1,.847-2.625,6.312,6.312,0,0,1-2.485-1.593.249.249,0,0,0-.246-.051,2.427,2.427,0,0,1-2.547-.779.551.551,0,0,1-.152-.3,6.754,6.754,0,0,0-1.019-3.009,4.309,4.309,0,0,0-.543-.343,12.253,12.253,0,0,1,14.179-9.2,10.34,10.34,0,0,0-1.995,1.4c-.849.72-1.51.948-2.019.7-.652-.318-.7-1.279-.691-1.719-.091-.138-.181-.2-.209-.2,0,0-.335.1-.665,1.7a.56.56,0,0,1-.105.228,1.135,1.135,0,0,1-.823.455,1.207,1.207,0,0,1-.938-.481c-.079-.089-.383-.078-.735.094-.449.219-.714.558-.681.738s.459.453,1.532.555c.943-.452,2.158-.889,2.67-.451a.783.783,0,0,1,.17.9c-.261.865-.16,1.081-.16,1.083a.557.557,0,0,1-.1.67,2.33,2.33,0,0,0-.722,1.026,1.788,1.788,0,0,1-.274.659.674.674,0,0,0-.142.581.549.549,0,0,1-.094.435.567.567,0,0,1-.4.226c-.478.049-.592.734-.618,1.139a.554.554,0,0,1-1.036.24,1.314,1.314,0,0,0-.716-.678.924.924,0,0,0-.72.222.553.553,0,0,1-.259.1c-.109.012-1.068.136-1.317.686-.2.446.127,1.074.442,1.527a14.22,14.22,0,0,0,1.271-.648.409.409,0,0,1,.529.6.929.929,0,0,0-.226.641.544.544,0,0,0,.242.316c.235-.267.559-.55.889-.414.379.157.332.682.313.881a1.409,1.409,0,0,0,.43,1.129,1.066,1.066,0,0,0,.5.306,1.62,1.62,0,0,1,.979-.989c.848-.3,2.057.01,3.594.928a.565.565,0,0,0,.345.078,1.462,1.462,0,0,1,1.642.854.559.559,0,0,0,.517.359A1.749,1.749,0,0,1,440.139,336.8Zm5.851,2.619a12.286,12.286,0,0,0-3.353-17.349.677.677,0,0,0,.1.36l.016.024a.332.332,0,0,1-.089.452c-.054.038-.1.068-.146.094-.128.077-.287.174-.277.369.011.227.161.3.884.644l.131.063c.085.04.173.106.166.167-.011.1-.235.389-1.132.589a.388.388,0,0,0-.281.251.508.508,0,0,0,.065.467.5.5,0,0,1,.047.277.145.145,0,0,1-.091.154,1.335,1.335,0,0,1-1.008-.145.334.334,0,0,0-.4-.02c-.323.211-.374,1.119-.251,1.605.13.506.42.6.581.616.063.005.124.008.182.011a3.138,3.138,0,0,0-1.234,1.982,4.275,4.275,0,0,0,1.314,3.346.674.674,0,0,0,.657.217c.478-.108,2.054-.387,2.283.524a9.772,9.772,0,0,1,.216,1.817,2.9,2.9,0,0,0,.4,1.759,2.239,2.239,0,0,1,.444.651,1.461,1.461,0,0,0,.249.39,1.912,1.912,0,0,0,.213.171c.328.244.4.348.339.465C446.01,339.385,446,339.4,445.99,339.417Zm4.09-7.046a14.172,14.172,0,1,1-12.542-14.093A14.2,14.2,0,0,1,450.08,332.371Zm-1.19,0A12.988,12.988,0,0,0,437.4,319.459a13.31,13.31,0,0,0-1.509-.086,13,13,0,1,0,13,13Zm5.432-.861a.8.8,0,0,0-.8.8,17.959,17.959,0,1,1-24.6-16.684l.557,3.062,6.084-5.159-7.51-2.69.579,3.191a19.555,19.555,0,1,0,26.494,18.28A.8.8,0,0,0,454.322,331.51ZM437.39,314.44a.815.815,0,0,0,.31-.06.87.87,0,0,0,.26-.18.79.79,0,0,0,.229-.56.8.8,0,1,0-1.6,0,.8.8,0,0,0,.8.8Zm11.219,5.19a.8.8,0,0,0,.551-1.38.8.8,0,0,0-1.11,1.15A.822.822,0,0,0,448.609,319.63Zm3.71,5.05a.775.775,0,0,0,.361-.09.781.781,0,1,0-.361.09Zm.41,2.35a.805.805,0,0,0,.771.56.969.969,0,0,0,.229-.03.8.8,0,0,0,.531-1,.8.8,0,0,0-1.531.47ZM450.68,322a.758.758,0,0,0,.469-.16.8.8,0,0,0,.17-1.12.8.8,0,1,0-1.289.95A.818.818,0,0,0,450.68,322Zm-10.4-7.02a1.5,1.5,0,0,0,.21.02.8.8,0,0,0,.77-.59.812.812,0,0,0-.56-.98h-.011a.8.8,0,0,0-.409,1.55Zm2.829,1.03H443.1a.828.828,0,0,0,.339.07.8.8,0,0,0,.341-1.53.8.8,0,0,0-.671,1.46Zm3.061,1.63a.778.778,0,0,0,.66-.35.8.8,0,1,0-1.11.21A.846.846,0,0,0,446.17,317.64Zm7.43,11.67a.9.9,0,0,0-.241.56.8.8,0,0,0,.241.57.793.793,0,0,0,.57.23.787.787,0,0,0,.79-.8.766.766,0,0,0-.061-.3.643.643,0,0,0-.17-.26.673.673,0,0,0-.259-.18A.8.8,0,0,0,453.6,329.31Z" fill="#909090"/>
  </g>
</svg>
