<svg xmlns="http://www.w3.org/2000/svg" width="45.877" height="39.532" viewBox="0 0 45.877 39.532">
  <g id="Group_623" data-name="Group 623" transform="translate(-54.273 -211.833)">
    <path id="Path_1442" data-name="Path 1442" d="M66.767,226.856a7.765,7.765,0,0,0,.9-.161,10.021,10.021,0,0,1,1.911-8.771,10.305,10.305,0,0,1,2.826-2.454,7.626,7.626,0,0,0-7.359-3.586h0a7.571,7.571,0,0,0-5.112,2.826,7.446,7.446,0,0,0-1.58,5.517,7.612,7.612,0,0,0,8.419,6.629Z" transform="translate(-0.485 0)" fill="#909090" fill-rule="evenodd"/>
    <path id="Path_1443" data-name="Path 1443" d="M102.762,232.263c-1.171-2.367-2.94-3.537-4.955-3.291a.892.892,0,0,0-.255.073,11.358,11.358,0,0,1-4.639.993,12.93,12.93,0,0,1-1.957-.14,10.238,10.238,0,0,1-1.566,2.771,10.486,10.486,0,0,1-1.3,1.351c2.4.215,4.492,1.838,5.872,4.627a19.446,19.446,0,0,1,1.659,5.809c6.954-.137,7.188-.375,7.433-.626C104.739,242.1,104.583,235.942,102.762,232.263Z" transform="translate(-4.079 -2.063)" fill="#909090" fill-rule="evenodd"/>
    <path id="Path_1444" data-name="Path 1444" d="M100.409,218.512a7.6,7.6,0,0,0-8.418-6.629h0a7.5,7.5,0,0,0-5.64,3.591A10.155,10.155,0,0,1,91.1,226.692a7.578,7.578,0,0,0,1.754.213,7.667,7.667,0,0,0,.87-.049,7.573,7.573,0,0,0,5.111-2.826A7.44,7.44,0,0,0,100.409,218.512Z" transform="translate(-3.869 0)" fill="#909090" fill-rule="evenodd"/>
    <path id="Path_1445" data-name="Path 1445" d="M64.15,239.4c1.392-3.177,3.74-4.992,6.5-5.13a10.257,10.257,0,0,1-3.156-4.437,12.454,12.454,0,0,1-2.232.234,11.462,11.462,0,0,1-4.561-.834.857.857,0,0,0-.283-.066c-2.125-.11-3.9,1.2-4.987,3.689-1.621,3.7-1.528,9.584.178,11.248.239.232.467.454,5.757.454.446,0,.939,0,1.461-.005A18.765,18.765,0,0,1,64.15,239.4Z" transform="translate(0 -2.089)" fill="#909090" fill-rule="evenodd"/>
    <g id="Group_622" data-name="Group 622" transform="translate(63.79 215.206)">
      <path id="Path_1446" data-name="Path 1446" d="M89.77,239.885c-1.366-2.806-3.446-4.2-5.829-3.926a.948.948,0,0,0-.3.084,14.251,14.251,0,0,1-10.87.113.958.958,0,0,0-.334-.08c-2.509-.148-4.611,1.382-5.921,4.317-1.944,4.354-1.882,11.307.12,13.288.281.277.547.54,6.8.583,1.345.009,2.965.009,4.923-.006,11.042-.075,11.345-.383,11.668-.707C92.026,251.526,91.89,244.245,89.77,239.885Zm-1.009,12.084c-2.459.335-18.5.431-20.871.124-.864-1.318-1.455-6.645.439-10.889.939-2.1,2.215-3.161,3.8-3.151h.031a16.286,16.286,0,0,0,12.154-.135c1.46-.1,2.706.851,3.672,2.835C89.843,244.578,89.8,250.418,88.761,251.969Z" transform="translate(-65.095 -218.111)" fill="#909090" fill-rule="evenodd"/>
      <path id="Path_1447" data-name="Path 1447" d="M87.924,223.618a9.007,9.007,0,0,0-15.952-4.6,8.794,8.794,0,0,0-1.91,6.5,8.967,8.967,0,0,0,8.864,7.95,8.79,8.79,0,0,0,1.026-.052,8.94,8.94,0,0,0,6.062-3.3A8.787,8.787,0,0,0,87.924,223.618Zm-8.973,7.93a7.032,7.032,0,1,1,7.079-6.985A7.033,7.033,0,0,1,78.951,231.548Z" transform="translate(-65.687 -215.668)" fill="#909090" fill-rule="evenodd"/>
    </g>
  </g>
</svg>
