<svg xmlns="http://www.w3.org/2000/svg" width="43.928" height="41.066" viewBox="0 0 43.928 41.066">
  <g id="Group_625" data-name="Group 625" transform="translate(-51.411 -597.147)">
    <path id="Path_1451" data-name="Path 1451" d="M84.758,605.624v32.59H98.3V597.147Zm4.333,29.912H86.115v-5.8h2.976Zm0-7.813H86.115v-5.8h2.976Zm0-7.272H86.115v-5.8h2.976Zm0-7.6H86.115v-5.8h2.976Zm4.061,22.687H90.174v-5.8h2.978Zm0-7.813H90.174v-5.8h2.978Zm0-7.272H90.174v-5.8h2.978Zm0-7.6H90.174v-5.8h2.978Zm3.793,22.687h-2.98v-5.8h2.98Zm0-7.813h-2.98v-5.8h2.98Zm0-7.272h-2.98v-5.8h2.98Zm0-7.6h-2.98v-5.8h2.98Z" transform="translate(-2.959)" fill="#909090"/>
    <path id="Path_1452" data-name="Path 1452" d="M68.084,613.973v24.982H81.625V605.495Zm4.335,22.3H69.442v-5.8h2.977Zm0-7.813H69.442v-5.8h2.977Zm0-7.272H69.442v-5.8h2.977Zm4.06,15.085H73.5v-5.8h2.978Zm0-7.813H73.5v-5.8h2.978Zm0-7.272H73.5v-5.8h2.978Zm3.793,15.085H77.292v-5.8h2.979Zm0-7.813H77.292v-5.8h2.979Zm0-7.272H77.292v-5.8h2.979Z" transform="translate(-1.479 -0.741)" fill="#909090"/>
    <path id="Path_1453" data-name="Path 1453" d="M51.411,622.135v17.544H64.952V613.657ZM55.745,637H52.768v-5.8h2.977Zm0-7.813H52.768v-5.8h2.977ZM59.806,637H56.827v-5.8h2.979Zm0-7.813H56.827v-5.8h2.979ZM63.6,637H60.618v-5.8H63.6Zm0-7.813H60.618v-5.8H63.6Z" transform="translate(0 -1.465)" fill="#909090"/>
  </g>
</svg>
