<svg id="Teal_Circle" data-name="Teal Circle" xmlns="http://www.w3.org/2000/svg" viewBox="0 0 53.86 53.86"><defs><style>.cls-1{fill:#f6f8fa;}.cls-2{fill:#558196;}.cls-3{font-size:5.14px;fill:#a3bbc9;font-family:NewStenciltfb, New Stencil tfb;}</style></defs><title>OTW_Teal_Circle</title><path class="cls-1" d="M467.72,352.91A26.93,26.93,0,1,0,440.79,326a26.93,26.93,0,0,0,26.93,26.93" transform="translate(-440.79 -299.06)"/><path class="cls-2" d="M466.38,319l1.06-7.84h.61l1,7.84Zm-1.27,1.34,1.38-10.23,0-.64h0a5.26,5.26,0,0,0-1.88-3.81,3.93,3.93,0,0,0-5.08,0l-5.83,6a7.45,7.45,0,1,0,11.38,8.65Zm-1.22-13.84a3.93,3.93,0,0,1,1.49,3.43l-.09.66h0L464,320a6.33,6.33,0,1,1-9.61-7.44l5.85-6.07A2.84,2.84,0,0,1,463.89,306.52Zm20.83,11.17a7.44,7.44,0,0,0-3-6l-5.77-6-.06,0a3.92,3.92,0,0,0-5.07,0,5.17,5.17,0,0,0-1.87,4.31l1.36,10.27.06.26a7.47,7.47,0,0,0,14.37-2.83Zm-14.67-7.83a4,4,0,0,1,1.49-3.34,2.84,2.84,0,0,1,3.61,0l5.78,6,.07.06A6.32,6.32,0,0,1,477.27,324a6.26,6.26,0,0,1-5.86-3.85Zm-11.57,2.66a5,5,0,1,0,5,5.05A5,5,0,0,0,458.48,312.52Zm18.59,0a5,5,0,1,0,5,5.05A5,5,0,0,0,477.07,312.52Z" transform="translate(-440.79 -299.06)"/><path class="cls-2" d="M454.05,328v1.29s0,0,0,0h0a1.23,1.23,0,0,0-1.12.77,2.73,2.73,0,0,0-.2,1.08v.13a1.86,1.86,0,0,0,.9,1.81,1.39,1.39,0,0,0,.5.1v1.32a2.63,2.63,0,0,1-2.47-1.42,3.88,3.88,0,0,1-.41-1.74v-.18a3,3,0,0,1,1.58-2.93A3.18,3.18,0,0,1,454.05,328Zm.21,0a2.79,2.79,0,0,1,1.7.56,3.32,3.32,0,0,1,1.1,2.67,3.4,3.4,0,0,1-1,2.63,2.74,2.74,0,0,1-1.71.66h0v-1.32h0a1.18,1.18,0,0,0,.89-.49,2.46,2.46,0,0,0,.37-1.39v-.2c0-.89-.33-1.45-.86-1.69a1.11,1.11,0,0,0-.44-.12Z" transform="translate(-440.79 -299.06)"/><path class="cls-2" d="M457.92,327.92h1.2l.05,6.39c0,.08-.06.12-.18.14h-1c-.11,0-.17-.07-.19-.2l-.05-6.14C457.79,328,457.84,327.92,457.92,327.92Zm1.41,0c.05,0,.17.2.36.61,1.1,2.09,1.64,3.15,1.64,3.16l0,2.72h0c-.06,0-.17-.17-.32-.51,0,0-.3-.56-.8-1.53s-.77-1.48-.87-1.69Zm2.33,0h1c.08,0,.13.06.16.17l0,6.2c0,.11-.07.16-.16.16h-1.18l-.05-6.4C461.52,328,461.56,327.91,461.66,327.89Z" transform="translate(-440.79 -299.06)"/><path class="cls-2" d="M463.66,327.88H465l0,6.53H463.7c-.08,0-.13-.06-.15-.17l-.05-6.17C463.52,327.94,463.57,327.88,463.66,327.88Zm1.53,0,2.86,0c.11,0,.16.08.16.16v1c0,.07-.06.12-.17.15l-2.85,0Zm0,2.57,2.88,0q.15,0,.15.15v1q0,.15-.15.15l-2.88,0Zm0,2.64,3,0q.15,0,.15.15v1c0,.09-.07.14-.14.14l-3,0Z" transform="translate(-440.79 -299.06)"/><path class="cls-2" d="M472.65,327.81l4.81,0c.07,0,.12.06.15.17v1a.17.17,0,0,1-.06.12l-5,0s0,0-.06-.11v-1C472.53,327.86,472.58,327.81,472.65,327.81Zm1.67,1.47,1.49,0,0,4.89c0,.11-.08.16-.17.16h-1.13c-.13,0-.19-.07-.19-.18Z" transform="translate(-440.79 -299.06)"/><path class="cls-2" d="M481.2,327.74V329s0,0,0,0h0a1.22,1.22,0,0,0-1.12.77,2.74,2.74,0,0,0-.21,1.08V331a1.88,1.88,0,0,0,.9,1.82,1.39,1.39,0,0,0,.5.1v1.31a2.62,2.62,0,0,1-2.46-1.41,3.68,3.68,0,0,1-.41-1.75v-.17A3,3,0,0,1,480,328,3.37,3.37,0,0,1,481.2,327.74Zm.22,0a2.92,2.92,0,0,1,1.69.56,3.32,3.32,0,0,1,1.1,2.67,3.39,3.39,0,0,1-1,2.63,2.68,2.68,0,0,1-1.71.66h0l0-1.32h0a1.18,1.18,0,0,0,.89-.48,2.57,2.57,0,0,0,.36-1.39v-.2c0-.89-.32-1.46-.86-1.7a1.05,1.05,0,0,0-.43-.11Z" transform="translate(-440.79 -299.06)"/><text class="cls-3" transform="translate(42.08 36.3)"> </text><path class="cls-2" d="M451.34,343.06l0-6.77q0-.14.18-.18h1.11c.12,0,.18.09.18.17l.05,7h-1.3C451.42,343.24,451.37,343.18,451.34,343.06Zm1.68-3.52c.06-.27.34-1.3.86-3.09,0-.24.11-.36.25-.36H455a.18.18,0,0,1,.16.11c.66,2.16,1,3.27,1,3.34l0,3.67H456a.21.21,0,0,1-.14-.09c-.83-2.86-1.25-4.32-1.25-4.38h0c-.08.39-.45,1.74-1.11,4q-.08.45-.24.45h-.19Zm3.35-3.32c0-.08.05-.12.16-.14h1.13c.08,0,.14.05.17.16l.05,6.81c0,.08-.05.13-.15.16h-1.31Z" transform="translate(-440.79 -299.06)"/><path class="cls-2" d="M461.21,336h1.26c-.54,2-.91,3.31-1.11,4v0c-.25.92-.4,1.46-.46,1.62-.28.91-.43,1.39-.47,1.46a.17.17,0,0,1-.11.06H459c-.1,0-.15-.07-.15-.16v0c.08-.29.64-2.05,1.68-5.3l.51-1.58S461.11,336.07,461.21,336Zm1.5,0c.12,0,.21.15.28.44,1.39,4.15,2.12,6.31,2.16,6.49v0q0,.15-.15.15h-1.3c-.1,0-.18-.14-.24-.43q0-.06-.42-1.29h-1.83q.3-1,.39-1.41h1l-.54-1.76C462.49,336.8,462.7,336.05,462.71,336Z" transform="translate(-440.79 -299.06)"/><path class="cls-2" d="M465.42,336l5.25,0c.08,0,.14.06.17.18v1.07a.18.18,0,0,1-.06.13l-5.44,0s0,0-.06-.11v-1.12Q465.3,336,465.42,336Zm1.82,1.6h1.63l0,5.33c0,.12-.08.18-.18.18h-1.24c-.14,0-.21-.08-.21-.2Z" transform="translate(-440.79 -299.06)"/><path class="cls-2" d="M474.39,336v1.44a1.09,1.09,0,0,1-.28.09c-.6.27-.89.94-.9,2a2.13,2.13,0,0,0,.84,2,1.08,1.08,0,0,0,.37.13v1.46a3.57,3.57,0,0,1-1.07-.26,2.94,2.94,0,0,1-1.43-1.53,4.46,4.46,0,0,1-.29-1.54v-.47a3.88,3.88,0,0,1,.54-2.09,2.55,2.55,0,0,1,1.32-1A3,3,0,0,1,474.39,336Zm.23,0h0a2.64,2.64,0,0,1,2.72,1.53,1.2,1.2,0,0,1,.15.43c0,.13-.16.2-.49.2l-.44,0h-.27c-.22,0-.36-.07-.41-.22a1.41,1.41,0,0,0-1.13-.53h-.13Zm1.87,4.82c.71,0,1.07.05,1.07.11a.21.21,0,0,1,.05.11h0a2.84,2.84,0,0,1-2.74,2.08h-.19v-1.44h.11a1.34,1.34,0,0,0,1.25-.76C476.09,340.8,476.25,340.76,476.49,340.76Z" transform="translate(-440.79 -299.06)"/><path class="cls-2" d="M478.72,335.91H480c.11,0,.17.08.19.24l0,2.46h1v1.52h-1l0,2.67c0,.16-.05.25-.16.25h-1.3c-.11,0-.17-.08-.17-.17l0-6.8C478.54,336,478.6,335.94,478.72,335.91Zm3.94,0h1.25c.12,0,.18.08.18.16l.06,6.81c0,.1-.08.16-.16.16h-1.31c-.1,0-.15-.07-.15-.16l0-2.75h-1.05v-1.52h1.05l0-2.54C482.48,336,482.54,335.91,482.66,335.88Z" transform="translate(-440.79 -299.06)"/></svg>