<svg xmlns="http://www.w3.org/2000/svg" width="86.648" height="86.648" viewBox="0 0 86.648 86.648">
  <g id="Group_640" data-name="Group 640" transform="translate(-420 -1473)">
    <g id="Group_530" data-name="Group 530" transform="translate(420 1473)">
      <path id="Path_730" data-name="Path 730" d="M313.13,476.17a39.66,39.66,0,1,0-39.66-39.66,39.661,39.661,0,0,0,39.66,39.66" transform="translate(-269.806 -393.186)" fill="#fff"/>
      <path id="Path_731" data-name="Path 731" d="M314.584,481.288a43.324,43.324,0,1,0-43.324-43.324A43.327,43.327,0,0,0,314.584,481.288Z" transform="translate(-271.26 -394.64)" fill="#dc8821"/>
      <path id="Path_732" data-name="Path 732" d="M306.346,452.291a22.566,22.566,0,1,0-22.566-22.566,22.558,22.558,0,0,0,22.566,22.566" transform="translate(-263.022 -386.402)" fill="#fff"/>
    </g>
    <g id="Group_639" data-name="Group 639">
      <g id="Group_531" data-name="Group 531" transform="translate(432.235 1495.432)">
        <path id="Path_733" data-name="Path 733" d="M278.74,412.415a.213.213,0,0,1-.066-.3l2.437-3.847a.216.216,0,0,1,.3-.066l.779.5a.213.213,0,0,1,.066.3l-1.774,2.8,1.559.978,1.476-2.338a.216.216,0,0,1,.3-.066l.779.5a.216.216,0,0,1,.066.3l-1.476,2.338,1.658,1.045,1.774-2.8a.216.216,0,0,1,.3-.066l.779.5a.213.213,0,0,1,.066.3l-2.437,3.847a.216.216,0,0,1-.3.066Z" transform="translate(-278.639 -408.169)" fill="#fff"/>
      </g>
      <g id="Group_532" data-name="Group 532" transform="translate(437.401 1487.841)">
        <path id="Path_734" data-name="Path 734" d="M281.8,407.917a.23.23,0,0,1,.033-.3l.216-.182,6.765.68h0l-3.034-3.5a.228.228,0,0,1,.017-.3l.779-.68a.227.227,0,0,1,.3.017l4.957,5.687a.213.213,0,0,1-.033.3l-.2.182-6.914-.812h0l3.167,3.631a.228.228,0,0,1-.017.3l-.763.663a.227.227,0,0,1-.3-.017Z" transform="translate(-281.755 -403.591)" fill="#fff"/>
      </g>
      <g id="Group_533" data-name="Group 533" transform="translate(446.376 1483.754)">
        <path id="Path_735" data-name="Path 735" d="M287.188,402.824a.219.219,0,0,1,.1-.282l2.421-1.078a3.923,3.923,0,1,1,3.167,7.179l-2.421,1.078a.2.2,0,0,1-.265-.116Zm5.024,4.626a2.558,2.558,0,0,0-2.073-4.676l-1.177.514,2.073,4.692Z" transform="translate(-287.168 -401.126)" fill="#fff"/>
      </g>
      <g id="Group_534" data-name="Group 534" transform="translate(456.585 1481.016)">
        <path id="Path_736" data-name="Path 736" d="M297.1,399.484a4.037,4.037,0,1,1-3.764,4.294A4.009,4.009,0,0,1,297.1,399.484Zm.414,6.6a2.562,2.562,0,0,0,2.4-2.719,2.575,2.575,0,1,0-2.4,2.719Z" transform="translate(-293.326 -399.474)" fill="#fff"/>
      </g>
      <g id="Group_535" data-name="Group 535" transform="translate(466.637 1481.315)">
        <path id="Path_737" data-name="Path 737" d="M301.115,399.813a.2.2,0,0,1,.249-.149l3.117.729a2.412,2.412,0,0,1,1.824,2.9,2.469,2.469,0,0,1-2.139,1.824l.846,3.117a.2.2,0,0,1-.265.265l-1.144-.265a.178.178,0,0,1-.149-.133l-.779-3.233-1.21-.282-.647,2.785a.23.23,0,0,1-.249.166l-1.011-.232a.23.23,0,0,1-.166-.249Zm2.437,4.029a1.147,1.147,0,0,0,1.343-.862,1.109,1.109,0,0,0-.829-1.31l-1.774-.414-.514,2.172Z" transform="translate(-299.388 -399.655)" fill="#fff"/>
      </g>
      <g id="Group_536" data-name="Group 536" transform="translate(473.985 1484.429)">
        <path id="Path_738" data-name="Path 738" d="M303.953,406.9l.68-.431a.268.268,0,0,1,.381.1,3.646,3.646,0,0,0,1.194,1.376.951.951,0,0,0,1.31-.315c.265-.514,0-1.078-.663-1.84-.746-.862-1.376-1.94-.779-3.117a2.221,2.221,0,0,1,3.217-.779,3.935,3.935,0,0,1,1.658,1.675.288.288,0,0,1-.1.365l-.663.381a.3.3,0,0,1-.414-.05,3.767,3.767,0,0,0-1.111-1.26.891.891,0,0,0-1.227.249c-.232.464-.033.978.613,1.724.779.879,1.592,2.023.945,3.316a2.364,2.364,0,0,1-3.3.812,3.6,3.6,0,0,1-1.807-1.89C303.8,407.082,303.77,407,303.953,406.9Z" transform="translate(-303.82 -401.533)" fill="#fff"/>
      </g>
      <g id="Group_537" data-name="Group 537" transform="translate(479.612 1488.182)">
        <path id="Path_739" data-name="Path 739" d="M312.1,403.868a.209.209,0,0,1,.3-.017l3.465,2.968a.213.213,0,0,1,.033.3l-.6.7a.209.209,0,0,1-.3.017l-2.52-2.155-1.194,1.393,2.106,1.807a.21.21,0,0,1,.017.3l-.613.713a.2.2,0,0,1-.3.017l-2.106-1.807-1.277,1.492,2.52,2.155a.2.2,0,0,1,.017.3l-.6.7a.21.21,0,0,1-.3.017l-3.465-2.968a.2.2,0,0,1-.017-.3Z" transform="translate(-307.214 -403.797)" fill="#fff"/>
      </g>
      <g id="Group_538" data-name="Group 538" transform="translate(484.698 1494.519)">
        <path id="Path_740" data-name="Path 740" d="M316.646,407.654a.2.2,0,0,1,.282.05l1.426,2.238a3.921,3.921,0,1,1-6.615,4.211l-1.426-2.238a.212.212,0,0,1,.066-.282Zm-3.83,5.654a2.558,2.558,0,0,0,4.311-2.752l-.68-1.078-4.327,2.752Z" transform="translate(-310.281 -407.619)" fill="#fff"/>
      </g>
      <g id="Group_539" data-name="Group 539" transform="translate(485.933 1528.056)">
        <path id="Path_741" data-name="Path 741" d="M320.036,431.5a.213.213,0,0,1,.083.282l-2.255,3.963a.222.222,0,0,1-.282.083l-.8-.448a.213.213,0,0,1-.083-.282l1.641-2.885-1.592-.912-1.376,2.4a.217.217,0,0,1-.282.083l-.812-.464a.206.206,0,0,1-.083-.282l1.376-2.4-1.708-.962-1.641,2.885a.221.221,0,0,1-.3.083l-.8-.448a.213.213,0,0,1-.083-.282l2.255-3.963a.222.222,0,0,1,.282-.083Z" transform="translate(-311.026 -427.846)" fill="#fff"/>
      </g>
      <g id="Group_540" data-name="Group 540" transform="translate(479.999 1533.892)">
        <path id="Path_742" data-name="Path 742" d="M317.582,436.877a.211.211,0,0,1-.017.3l-.2.2-6.8-.348h0l3.2,3.333a.21.21,0,0,1,0,.3l-.746.713a.21.21,0,0,1-.3,0l-5.223-5.438a.211.211,0,0,1,.017-.3l.2-.182,6.947.464h.017l-3.333-3.482a.21.21,0,0,1,0-.3l.73-.713a.227.227,0,0,1,.3,0Z" transform="translate(-307.447 -431.366)" fill="#fff"/>
      </g>
      <g id="Group_541" data-name="Group 541" transform="translate(473.35 1539.716)">
        <path id="Path_743" data-name="Path 743" d="M311.583,441.629a.213.213,0,0,1-.083.282l-2.371,1.194a3.926,3.926,0,1,1-3.532-7.013l2.371-1.194a.219.219,0,0,1,.282.1Zm-5.256-4.361a2.562,2.562,0,0,0,2.3,4.576l1.144-.58-2.3-4.576Z" transform="translate(-303.437 -434.878)" fill="#fff"/>
      </g>
      <g id="Group_542" data-name="Group 542" transform="translate(463.248 1543.423)">
        <path id="Path_744" data-name="Path 744" d="M301.83,445.165a4.038,4.038,0,1,1,3.548-4.477A4.03,4.03,0,0,1,301.83,445.165Zm-.746-6.566a2.578,2.578,0,0,0-2.271,2.835,2.618,2.618,0,0,0,2.852,2.288,2.578,2.578,0,0,0-.58-5.123Z" transform="translate(-297.344 -437.114)" fill="#fff"/>
      </g>
      <g id="Group_543" data-name="Group 543" transform="translate(454.3 1542.814)">
        <path id="Path_745" data-name="Path 745" d="M297.357,445.274a.2.2,0,0,1-.249.166l-3.15-.58a2.4,2.4,0,0,1,.066-4.742l-.995-3.084a.211.211,0,0,1,.249-.282l1.161.216a.2.2,0,0,1,.166.133l.928,3.2,1.227.216.514-2.819a.2.2,0,0,1,.249-.166l1.011.182a.2.2,0,0,1,.166.249Zm-2.636-3.9a1.153,1.153,0,0,0-1.293.928,1.139,1.139,0,0,0,.9,1.277l1.791.332.4-2.189Z" transform="translate(-291.948 -436.747)" fill="#fff"/>
      </g>
      <g id="Group_544" data-name="Group 544" transform="translate(446.727 1540.794)">
        <path id="Path_746" data-name="Path 746" d="M294.228,437.985l-.647.464a.265.265,0,0,1-.381-.083,3.721,3.721,0,0,0-1.26-1.326.94.94,0,0,0-1.277.365c-.232.514.05,1.078.746,1.807.779.812,1.476,1.857.928,3.067a2.241,2.241,0,0,1-3.183.929,3.894,3.894,0,0,1-1.741-1.608.282.282,0,0,1,.083-.365l.647-.414c.133-.083.332-.1.414.033a3.818,3.818,0,0,0,1.177,1.194.9.9,0,0,0,1.227-.315c.216-.481-.017-.978-.7-1.691-.812-.846-1.691-1.956-1.094-3.266a2.381,2.381,0,0,1,3.266-.978,3.6,3.6,0,0,1,1.89,1.807C294.36,437.786,294.394,437.869,294.228,437.985Z" transform="translate(-287.38 -435.529)" fill="#fff"/>
      </g>
      <g id="Group_545" data-name="Group 545" transform="translate(439.336 1536.222)">
        <path id="Path_747" data-name="Path 747" d="M286.9,441.772a.21.21,0,0,1-.3.033L283,439a.212.212,0,0,1-.033-.3l.564-.729a.21.21,0,0,1,.3-.033l2.62,2.039,1.127-1.459-2.189-1.691a.228.228,0,0,1-.033-.3l.564-.729a.213.213,0,0,1,.3-.033l2.189,1.691,1.21-1.542L287,433.88a.213.213,0,0,1-.033-.3l.564-.73a.21.21,0,0,1,.3-.033l3.6,2.8a.212.212,0,0,1,.033.3Z" transform="translate(-282.922 -432.771)" fill="#fff"/>
      </g>
      <g id="Group_546" data-name="Group 546" transform="translate(433.984 1530.804)">
        <path id="Path_748" data-name="Path 748" d="M282.241,437.921a.193.193,0,0,1-.282-.05l-1.542-2.172a3.924,3.924,0,1,1,6.4-4.543l1.542,2.172a.21.21,0,0,1-.05.282Zm3.532-5.853a2.563,2.563,0,0,0-4.178,2.968l.746,1.045,4.178-2.968Z" transform="translate(-279.694 -429.503)" fill="#fff"/>
      </g>
    </g>
    <g id="Group_547" data-name="Group 547" transform="translate(428.456 1502.662)">
      <path id="Path_749" data-name="Path 749" d="M291.295,435.643c-.7-2.106-.829-2.885-1.244-4.128s-.414-2.47,1.244-3.3,2.885-.414,3.714,2.073c.829,2.47,1.243,2.056,2.885-.415,1.658-2.47,9.086-14.043,11.142-15.685a6.636,6.636,0,0,1,4.543-1.658c.829,0,2.885,0-.829,3.3,0,0-13.629,17.757-15.27,21.471a2.851,2.851,0,0,1-2.056,1.243c-1.227,0-2.885.812-4.128-2.9" transform="translate(-267.502 -412.53)" fill="#dc8821"/>
      <path id="Path_750" data-name="Path 750" d="M279.212,424.747a2.844,2.844,0,1,0-2.852-2.852,2.852,2.852,0,0,0,2.852,2.852" transform="translate(-276.36 -408.233)" fill="#fff"/>
      <path id="Path_751" data-name="Path 751" d="M317.182,424.747a2.844,2.844,0,1,0-2.852-2.852,2.852,2.852,0,0,0,2.852,2.852" transform="translate(-251.375 -408.233)" fill="#fff"/>
    </g>
  </g>
</svg>
