<svg height="86.648" viewBox="0 0 86.648 86.648" width="86.648" xmlns="http://www.w3.org/2000/svg"><path d="m313.13 476.17a39.66 39.66 0 1 0 -39.66-39.66 39.661 39.661 0 0 0 39.66 39.66" fill="#fff" transform="translate(-269.806 -393.186)"/><path d="m314.584 481.288a43.324 43.324 0 1 0 -43.324-43.324 43.327 43.327 0 0 0 43.324 43.324z" fill="#dc8821" transform="translate(-271.26 -394.64)"/><g fill="#fff"><path d="m306.346 452.291a22.566 22.566 0 1 0 -22.566-22.566 22.558 22.558 0 0 0 22.566 22.566" transform="translate(-263.022 -386.402)"/><path d="m278.74 412.415a.213.213 0 0 1 -.066-.3l2.437-3.847a.216.216 0 0 1 .3-.066l.779.5a.213.213 0 0 1 .066.3l-1.774 2.8 1.559.978 1.476-2.338a.216.216 0 0 1 .3-.066l.779.5a.216.216 0 0 1 .066.3l-1.476 2.338 1.658 1.045 1.774-2.8a.216.216 0 0 1 .3-.066l.779.5a.213.213 0 0 1 .066.3l-2.437 3.847a.216.216 0 0 1 -.3.066z" transform="translate(-266.404 -385.737)"/><path d="m281.8 407.917a.23.23 0 0 1 .033-.3l.216-.182 6.765.68-3.034-3.5a.228.228 0 0 1 .017-.3l.779-.68a.227.227 0 0 1 .3.017l4.957 5.687a.213.213 0 0 1 -.033.3l-.2.182-6.914-.812 3.167 3.631a.228.228 0 0 1 -.017.3l-.763.663a.227.227 0 0 1 -.3-.017z" transform="translate(-264.354 -388.75)"/><path d="m287.188 402.824a.219.219 0 0 1 .1-.282l2.421-1.078a3.923 3.923 0 1 1 3.167 7.179l-2.421 1.078a.2.2 0 0 1 -.265-.116zm5.024 4.626a2.558 2.558 0 0 0 -2.073-4.676l-1.177.514 2.073 4.692z" transform="translate(-260.792 -390.372)"/><path d="m297.1 399.484a4.037 4.037 0 1 1 -3.764 4.294 4.009 4.009 0 0 1 3.764-4.294zm.414 6.6a2.562 2.562 0 0 0 2.4-2.719 2.575 2.575 0 1 0 -2.4 2.719z" transform="translate(-256.741 -391.458)"/><path d="m301.115 399.813a.2.2 0 0 1 .249-.149l3.117.729a2.412 2.412 0 0 1 1.824 2.9 2.469 2.469 0 0 1 -2.139 1.824l.846 3.117a.2.2 0 0 1 -.265.265l-1.144-.265a.178.178 0 0 1 -.149-.133l-.779-3.233-1.21-.282-.647 2.785a.23.23 0 0 1 -.249.166l-1.011-.232a.23.23 0 0 1 -.166-.249zm2.437 4.029a1.147 1.147 0 0 0 1.343-.862 1.109 1.109 0 0 0 -.829-1.31l-1.774-.414-.514 2.172z" transform="translate(-252.751 -391.34)"/><path d="m303.953 406.9.68-.431a.268.268 0 0 1 .381.1 3.646 3.646 0 0 0 1.194 1.376.951.951 0 0 0 1.31-.315c.265-.514 0-1.078-.663-1.84-.746-.862-1.376-1.94-.779-3.117a2.221 2.221 0 0 1 3.217-.779 3.935 3.935 0 0 1 1.658 1.675.288.288 0 0 1 -.1.365l-.663.381a.3.3 0 0 1 -.414-.05 3.767 3.767 0 0 0 -1.111-1.26.891.891 0 0 0 -1.227.249c-.232.464-.033.978.613 1.724.779.879 1.592 2.023.945 3.316a2.364 2.364 0 0 1 -3.3.812 3.6 3.6 0 0 1 -1.807-1.89c-.087-.134-.117-.216.066-.316z" transform="translate(-249.835 -390.104)"/><path d="m312.1 403.868a.209.209 0 0 1 .3-.017l3.465 2.968a.213.213 0 0 1 .033.3l-.6.7a.209.209 0 0 1 -.3.017l-2.52-2.155-1.194 1.393 2.106 1.807a.21.21 0 0 1 .017.3l-.613.713a.2.2 0 0 1 -.3.017l-2.106-1.807-1.277 1.492 2.52 2.155a.2.2 0 0 1 .017.3l-.6.7a.21.21 0 0 1 -.3.017l-3.465-2.968a.2.2 0 0 1 -.017-.3z" transform="translate(-247.602 -388.615)"/><path d="m316.646 407.654a.2.2 0 0 1 .282.05l1.426 2.238a3.921 3.921 0 1 1 -6.615 4.211l-1.426-2.238a.212.212 0 0 1 .066-.282zm-3.83 5.654a2.558 2.558 0 0 0 4.311-2.752l-.68-1.078-4.327 2.752z" transform="translate(-245.583 -386.1)"/><path d="m320.036 431.5a.213.213 0 0 1 .083.282l-2.255 3.963a.222.222 0 0 1 -.282.083l-.8-.448a.213.213 0 0 1 -.083-.282l1.641-2.885-1.592-.912-1.376 2.4a.217.217 0 0 1 -.282.083l-.812-.464a.206.206 0 0 1 -.083-.282l1.376-2.4-1.708-.962-1.641 2.885a.221.221 0 0 1 -.3.083l-.8-.448a.213.213 0 0 1 -.083-.282l2.255-3.963a.222.222 0 0 1 .282-.083z" transform="translate(-245.093 -372.79)"/><path d="m317.582 436.877a.211.211 0 0 1 -.017.3l-.2.2-6.8-.348 3.2 3.333a.21.21 0 0 1 0 .3l-.746.713a.21.21 0 0 1 -.3 0l-5.223-5.438a.211.211 0 0 1 .017-.3l.2-.182 6.947.464h.017l-3.333-3.482a.21.21 0 0 1 0-.3l.73-.713a.227.227 0 0 1 .3 0z" transform="translate(-247.448 -370.474)"/><path d="m311.583 441.629a.213.213 0 0 1 -.083.282l-2.371 1.194a3.926 3.926 0 1 1 -3.532-7.013l2.371-1.194a.219.219 0 0 1 .282.1zm-5.256-4.361a2.562 2.562 0 0 0 2.3 4.576l1.144-.58-2.3-4.576z" transform="translate(-250.087 -368.162)"/><path d="m301.83 445.165a4.038 4.038 0 1 1 3.548-4.477 4.03 4.03 0 0 1 -3.548 4.477zm-.746-6.566a2.578 2.578 0 0 0 -2.271 2.835 2.618 2.618 0 0 0 2.852 2.288 2.578 2.578 0 0 0 -.58-5.123z" transform="translate(-254.096 -366.691)"/><path d="m297.357 445.274a.2.2 0 0 1 -.249.166l-3.15-.58a2.4 2.4 0 0 1 .066-4.742l-.995-3.084a.211.211 0 0 1 .249-.282l1.161.216a.2.2 0 0 1 .166.133l.928 3.2 1.227.216.514-2.819a.2.2 0 0 1 .249-.166l1.011.182a.2.2 0 0 1 .166.249zm-2.636-3.9a1.153 1.153 0 0 0 -1.293.928 1.139 1.139 0 0 0 .9 1.277l1.791.332.4-2.189z" transform="translate(-257.648 -366.933)"/><path d="m294.228 437.985-.647.464a.265.265 0 0 1 -.381-.083 3.721 3.721 0 0 0 -1.26-1.326.94.94 0 0 0 -1.277.365c-.232.514.05 1.078.746 1.807.779.812 1.476 1.857.928 3.067a2.241 2.241 0 0 1 -3.183.929 3.894 3.894 0 0 1 -1.741-1.608.282.282 0 0 1 .083-.365l.647-.414c.133-.083.332-.1.414.033a3.818 3.818 0 0 0 1.177 1.194.9.9 0 0 0 1.227-.315c.216-.481-.017-.978-.7-1.691-.812-.846-1.691-1.956-1.094-3.266a2.381 2.381 0 0 1 3.266-.978 3.6 3.6 0 0 1 1.89 1.807c.037.181.071.264-.095.38z" transform="translate(-260.653 -367.735)"/><path d="m286.9 441.772a.21.21 0 0 1 -.3.033l-3.6-2.805a.212.212 0 0 1 -.033-.3l.564-.729a.21.21 0 0 1 .3-.033l2.62 2.039 1.127-1.459-2.189-1.691a.228.228 0 0 1 -.033-.3l.564-.729a.213.213 0 0 1 .3-.033l2.189 1.691 1.21-1.542-2.619-2.034a.213.213 0 0 1 -.033-.3l.564-.73a.21.21 0 0 1 .3-.033l3.6 2.8a.212.212 0 0 1 .033.3z" transform="translate(-263.586 -369.549)"/><path d="m282.241 437.921a.193.193 0 0 1 -.282-.05l-1.542-2.172a3.924 3.924 0 1 1 6.4-4.543l1.542 2.172a.21.21 0 0 1 -.05.282zm3.532-5.853a2.563 2.563 0 0 0 -4.178 2.968l.746 1.045 4.178-2.968z" transform="translate(-265.71 -371.699)"/></g><path d="m291.295 435.643c-.7-2.106-.829-2.885-1.244-4.128s-.414-2.47 1.244-3.3 2.885-.414 3.714 2.073c.829 2.47 1.243 2.056 2.885-.415 1.658-2.47 9.086-14.043 11.142-15.685a6.636 6.636 0 0 1 4.543-1.658c.829 0 2.885 0-.829 3.3 0 0-13.629 17.757-15.27 21.471a2.851 2.851 0 0 1 -2.056 1.243c-1.227 0-2.885.812-4.128-2.9" fill="#dc8821" transform="translate(-259.046 -382.868)"/><path d="m279.212 424.747a2.844 2.844 0 1 0 -2.852-2.852 2.852 2.852 0 0 0 2.852 2.852" fill="#fff" transform="translate(-267.904 -378.571)"/><path d="m317.182 424.747a2.844 2.844 0 1 0 -2.852-2.852 2.852 2.852 0 0 0 2.852 2.852" fill="#fff" transform="translate(-242.919 -378.571)"/></svg>