<svg xmlns="http://www.w3.org/2000/svg" xmlns:xlink="http://www.w3.org/1999/xlink" width="51.408" height="51.408" viewBox="0 0 51.408 51.408">
  <defs>
    <clipPath id="clip-path">
      <rect id="Rectangle_217" data-name="Rectangle 217" width="32.756" height="28.206"/>
    </clipPath>
  </defs>
  <g id="Leadership" transform="translate(-130.4 -130.4)">
    <g id="Group_485" data-name="Group 485" transform="translate(130.4 130.4)">
      <path id="Path_720" data-name="Path 720" d="M156.1,181.808a25.7,25.7,0,1,1,25.7-25.7A25.824,25.824,0,0,1,156.1,181.808Zm0-50.271A24.567,24.567,0,1,0,180.671,156.1,24.609,24.609,0,0,0,156.1,131.537Z" transform="translate(-130.4 -130.4)" fill="#338197"/>
    </g>
    <g id="Group_492" data-name="Group 492" transform="translate(139.726 142.001)">
      <g id="Group_486" data-name="Group 486" clip-path="url(#clip-path)">
        <path id="Path_721" data-name="Path 721" d="M141.647,146.338a.836.836,0,0,0,.682-.227c0-.227-.227-.682-.227-.91a7.063,7.063,0,0,1,1.592-5.459,7.847,7.847,0,0,1,2.047-1.82,5.426,5.426,0,0,0-5.232-2.5h0a5.911,5.911,0,0,0-3.64,2.047,4.9,4.9,0,0,0-1.137,3.867,5.432,5.432,0,0,0,5.459,4.777c0,.455.228.455.455.227" transform="translate(-133.003 -135.647)" fill="#338197"/>
      </g>
      <g id="Group_487" data-name="Group 487" clip-path="url(#clip-path)">
        <path id="Path_722" data-name="Path 722" d="M154.491,142.594c-.91-1.592-2.047-2.5-3.64-2.275h-.227a7.6,7.6,0,0,1-3.412.682h-1.365a9.22,9.22,0,0,1-1.137,2.047c-.227.455-.682.682-.91.91a5.135,5.135,0,0,1,4.094,3.412,21.527,21.527,0,0,1,1.137,4.094c5,0,5.232-.227,5.232-.455,1.592-1.365,1.365-5.914.227-8.416" transform="translate(-122.645 -129.401)" fill="#338197"/>
      </g>
      <g id="Group_488" data-name="Group 488" clip-path="url(#clip-path)">
        <path id="Path_723" data-name="Path 723" d="M153.409,140.287a5.381,5.381,0,0,0-5.914-4.777h0a5.911,5.911,0,0,0-3.64,2.047c-.227.227-.227.455-.455.455a6.9,6.9,0,0,1,3.412,7.961,9.85,9.85,0,0,1,1.137.227h.682a5.911,5.911,0,0,0,3.64-2.047,4.445,4.445,0,0,0,1.137-3.867" transform="translate(-123.155 -135.51)" fill="#338197"/>
      </g>
      <g id="Group_489" data-name="Group 489" clip-path="url(#clip-path)">
        <path id="Path_724" data-name="Path 724" d="M141.632,147.579c.91-2.275,2.73-3.64,4.549-3.64a8.16,8.16,0,0,1-2.275-3.185c-.455,0-1.137.227-1.592.227a7.266,7.266,0,0,1-3.185-.682H138.9c-1.592,0-2.73.91-3.64,2.73-1.137,2.73-1.137,6.824.227,7.961.227.227.227.227,4.094.227h1.137a21.3,21.3,0,0,1,.91-3.64" transform="translate(-134.581 -129.381)" fill="#338197"/>
      </g>
      <g id="Group_490" data-name="Group 490" clip-path="url(#clip-path)">
        <path id="Path_725" data-name="Path 725" d="M154.269,153.593c-1.82.227-13.193.227-14.786,0-.682-.91-1.137-4.777.227-7.734.682-1.592,1.592-2.275,2.73-2.275h0a9.124,9.124,0,0,0,4.322.682,8.66,8.66,0,0,0,4.322-.91c1.137,0,1.82.682,2.73,2.047,1.365,2.957,1.365,7.052.455,8.189m.91-8.644c-.91-2.047-2.5-2.957-4.094-2.73h-.227a9.8,9.8,0,0,1-7.734.227H142.9c-1.82,0-3.185.91-4.322,3.185-1.365,3.185-1.365,7.961,0,9.554.227.227.455.455,4.777.455h3.412c7.961,0,8.189-.227,8.416-.455,1.592-1.82,1.365-7.052,0-10.236" transform="translate(-130.612 -126.979)" fill="#338197"/>
      </g>
      <g id="Group_491" data-name="Group 491" clip-path="url(#clip-path)">
        <path id="Path_726" data-name="Path 726" d="M145.3,147.982a5,5,0,1,1,5-5,5.049,5.049,0,0,1-5,5m6.369-5.687a6.713,6.713,0,0,0-7.052-5.687,6.252,6.252,0,0,0-4.322,2.275,5.732,5.732,0,0,0-1.365,4.549,6.581,6.581,0,0,0,6.369,5.687h.682a6.252,6.252,0,0,0,4.322-2.275,5.732,5.732,0,0,0,1.365-4.549" transform="translate(-128.923 -134.106)" fill="#338197"/>
      </g>
    </g>
  </g>
</svg>
